<svg xmlns="http://www.w3.org/2000/svg" viewBox="-6 -6 32 32" class="app-svg icons-bell app-bar-icons-fill-colors" focusable="false" role="presentation">
  <path class="icons-default-fill icons-filled" d="M12.4497 16.0016C12.2174 17.1419 11.2089 18 10 18C8.79108 18 7.78257 17.1419 7.55033 16.0016H12.4497ZM9.99765 2C13.1466 2 15.7415 4.33488 15.9821 7.3554L15.9955 7.57762L16 7.80214L15.999 11.408L16.9528 13.9951L16.9784 14.0796L16.9939 14.1664L16.9991 14.2546C16.9991 14.5697 16.8034 14.845 16.4771 14.9618L16.3636 14.9947L16.2491 15.0046H3.75136C3.66286 15.0046 3.57507 14.9889 3.49203 14.9583C3.20513 14.8526 3.01636 14.5865 3.00958 14.2422L3.01418 14.1247L3.04762 13.9952L3.99901 11.411L4.00009 7.79281L4.00439 7.56824C4.12701 4.45115 6.77103 2 9.99765 2Z"></path>
</svg>