<svg id="reaction-like-icon_v2" width="16" height="16" xmlns="http://www.w3.org/2000/svg">
  <g id="Like_16_NO_Ring_Consumption" fill="none" fill-rule="evenodd">
    <rect id="Rectangle" fill-rule="nonzero" width="16" height="16" rx="8"/>
    <circle id="Oval" fill="#1485BD" cx="8" cy="8" r="7"/>
    <path d="M11.93 7.25h-.55c-.05 0-.15-.19-.4-.46-.37-.4-.78-.91-1.07-1.19a7.18 7.18 0 0 1-1.73-2.24c-.24-.51-.26-.74-.75-.74a.77.77 0 0 0-.67.81c0 .14.07.63.1.8a7.62 7.62 0 0 0 1 2.2h.54-4.28a.87.87 0 0 0-.88.94.91.91 0 0 0 .93.85h.16a.78.78 0 0 0-.76.8.81.81 0 0 0 .74.8.8.8 0 0 0 .33 1.42.79.79 0 0 0-.09.55.86.86 0 0 0 .85.63h2.29c.3 0 .599-.038.89-.11l1.42-.42h1.9c1.02-.04 1.29-4.64.03-4.64z" id="Path" fill="#E6F7FF"/>
    <path d="M7.43 6.43H4.11a.88.88 0 0 0-.88 1 .91.91 0 0 0 .93.84h.16a.78.78 0 0 0-.76.8.83.83 0 0 0 .74.81.81.81 0 0 0-.31.63.82.82 0 0 0 .65.8.81.81 0 0 0-.09.56.86.86 0 0 0 .85.62h2.29c.3 0 .599-.038.89-.11l1.42-.47h1.9c1 0 1.27-4.64 0-4.64a5 5 0 0 1-.55 0c-.05 0-.15-.19-.4-.46-.37-.4-.78-.91-1.07-1.19a7.18 7.18 0 0 1-1.7-2.25 2 2 0 0 0-.32-.52.83.83 0 0 0-1.16.09 1.39 1.39 0 0 0-.25.38 1.49 1.49 0 0 0-.09.3 2.38 2.38 0 0 0 .07.84c.064.288.155.569.27.84.188.353.41.688.66 1a.18.18 0 0 1 .07.08" id="Path" stroke="#004B7C" stroke-linecap="round" stroke-linejoin="round"/>
  </g>
</svg>
